<svg width="46" height="80" viewBox="0 0 46 80" fill="none" xmlns="http://www.w3.org/2000/svg">
<path d="M23.5705 79C4.98939 79 -0.719903 76.8899 0.709132 75.0271C2.61421 72.5438 22.6186 73.0405 34.0494 73.0406C39.7651 73.0407 45.1334 74.0783 45.4801 75.5237C45.9566 77.5101 37.859 79 23.5705 79Z" fill="#DFD6D1" stroke="#DFD6D1"/>
<path d="M13.9999 4V7L31 7.5V4C31.4 1.2 29.1667 0.5 28 0.5H17.4999C14.2999 0.5 13.8333 2.83333 13.9999 4Z" fill="#ABAAA9" stroke="#ABAAA9"/>
<path d="M31.5002 3V6L31.5 7H28.5V6V1.5C28.5 0.0577794 26.1668 0 25.5002 0H28.0002C30.8002 0 31.5002 2 31.5002 3Z" fill="#99918D"/>
<path d="M33.4999 75.5C38.8213 75.1199 39.4999 70.5 39.4999 68V26.7063C35.4998 27.9063 32.8143 27.5 29 27.5H14.4999C8.92989 27.5 8 27.5 6.49986 26.8194L6.49986 68C6.49986 75 9.49986 75.5 13.4999 75.5C18.0276 75.5 28.1784 75.8801 33.4999 75.5Z" fill="#FDB924"/>
<path d="M33.4999 6H12.4999C6.50031 6 6.49977 8 6.49986 11.5L6.49986 26.5V26.8194C8 27.5 8.92989 27.5 14.4999 27.5H29C32.8143 27.5 35.4998 27.9063 39.4999 26.7063V11.5C39.4999 7 37.9999 6 33.4999 6Z" fill="#F75F39"/>
<path d="M21.5 12.5V16.5H18V19H21.5V23H24V19H27.5V16.5H24V12.5H21.5Z" fill="#FFBA22" stroke="#FFBA22"/>
<path d="M19.9999 64.5C17.0003 64.5 17 61 19.9999 61H25.5001C28.5002 61 29.0002 64.5 25.5001 64.5H19.9999Z" fill="#868F97" stroke="#868F97"/>
<path d="M35.0002 63.5L35 27.5C36.5998 27.5 38.6669 26.8333 39.5005 26.5C39.6671 37.8333 39.5005 61.9867 39.5005 68C39.5005 74.5 35.0005 75.5 33.0005 75.5H17.5005L17.5 72.5H29.0002C34.2002 72.5 35.1669 66.5 35.0002 63.5Z" fill="url(#paint0_linear_1276_195)"/>
<path d="M39.5 11.5V26.5C38.3 27.3 36 27.5 35 27.5C35 23 34.9 13.2 34.5 10C34.1 6.8 32.6667 6 32 6L34.5 6C38.9 5.6 39.6667 9.5 39.5 11.5Z" fill="#D24B2D"/>
<path d="M16.7693 2.47614C16.9835 2.4407 17.1749 2.3216 17.3014 2.14503C17.4278 1.96847 17.479 1.7489 17.4435 1.53464C17.4081 1.32038 17.289 1.12898 17.1124 1.00253C16.9358 0.876087 16.7163 0.824962 16.502 0.860404C16.502 0.860404 16.502 0.860404 16.502 0.860404C16.356 0.884657 16.228 0.928173 16.1158 0.978509C15.6872 1.18111 15.4481 1.44498 15.2364 1.71737C15.236 1.71783 15.2357 1.71829 15.2353 1.71876C14.8132 2.31074 14.7032 2.83777 14.6272 3.30963L14.6194 3.41091C14.6194 3.41107 14.6194 3.41123 14.6194 3.41139C14.6201 3.866 14.7176 4.19736 14.9049 4.80689L14.8948 4.75361C14.8949 4.75361 14.8949 4.75362 14.8949 4.75362C14.9114 4.75259 15.0026 4.8043 15.1077 4.86711C15.208 4.92671 15.3229 4.99182 15.405 5.05627C15.4223 5.06969 15.453 5.08257 15.4802 5.09206C15.5079 5.10156 15.53 5.10689 15.5515 5.10689C15.573 5.10689 15.5951 5.10156 15.6228 5.09206C15.65 5.08257 15.6806 5.06969 15.698 5.05627C15.7801 4.99137 15.8951 4.92808 15.9943 4.85862C16.0977 4.78603 16.1879 4.70167 16.1851 4.56643C16.1851 4.56633 16.1851 4.56623 16.1851 4.56614L16.1751 4.51286C16.213 4.46533 16.2525 4.20389 16.2943 4.02769C16.3345 3.83511 16.3675 3.63993 16.3711 3.44349C16.3711 3.44334 16.3711 3.4432 16.3711 3.44305L16.3633 3.54433C16.41 3.17015 16.4514 2.81255 16.5453 2.70159C16.5454 2.7015 16.5455 2.7014 16.5456 2.7013C16.634 2.57845 16.7605 2.47941 16.7872 2.47227C16.7925 2.46978 16.788 2.47294 16.7693 2.47614Z" fill="#C1C1C3"/>
<path d="M18.7125 0.774547C18.5654 0.816599 18.4409 0.915395 18.3666 1.0492C18.2922 1.18301 18.2741 1.34086 18.3162 1.48804C18.3582 1.63522 18.457 1.75967 18.5908 1.83401C18.7246 1.90834 18.8825 1.92648 19.0296 1.88443C19.0376 1.88217 19.0455 1.87991 19.0534 1.87766C19.1957 1.837 19.338 1.79634 19.4803 1.75569C19.4882 1.75343 19.4961 1.75117 19.504 1.74891C19.6511 1.70686 19.7756 1.60806 19.8499 1.47426C19.9243 1.34045 19.9424 1.18259 19.9004 1.03541C19.8583 0.888235 19.7595 0.763788 19.6257 0.689451C19.4919 0.615114 19.334 0.596976 19.1869 0.639028C19.1869 0.639028 19.1869 0.639028 19.1869 0.639028C19.179 0.641286 19.171 0.643545 19.1631 0.645804C19.0208 0.68646 18.8786 0.727115 18.7363 0.767771C18.7283 0.77003 18.7204 0.772289 18.7125 0.774547Z" fill="#C1C1C3"/>
<path d="M12.3191 11.2503C12.8466 11.2503 13.3526 11.0407 13.7257 10.6677C14.0987 10.2946 14.3083 9.78863 14.3083 9.26105C14.3083 8.73346 14.0987 8.22749 13.7257 7.85443C13.3526 7.48137 12.8466 7.27179 12.3191 7.27179C11.9906 7.27142 11.6791 7.29318 11.3812 7.32569C11.3801 7.3258 11.3791 7.32592 11.378 7.32603C11.264 7.3386 11.1512 7.35783 11.0388 7.38405C9.96367 7.65151 9.43645 8.33256 9.13775 8.72179C8.83473 9.13801 8.66076 9.47669 8.55518 9.64621C8.53745 9.6757 8.52069 9.70484 8.50481 9.7336C8.18184 10.3642 8.16923 10.6708 8.10872 10.9748C8.06231 11.2718 8.04169 11.5205 8.02574 11.7602C7.99577 12.2362 7.99052 12.6647 7.98732 13.0874C7.98294 13.9273 7.99266 14.7288 7.98288 15.5254C7.98273 15.5362 7.98258 15.547 7.98243 15.5578C7.97429 17.6147 8.13443 19.5232 8.28271 21.467C8.28295 21.4702 8.28319 21.4733 8.28343 21.4765C8.33646 22.1104 8.66493 22.8035 8.86959 23.445C8.86995 23.4459 8.87031 23.4467 8.87066 23.4476C8.89837 23.5154 8.92091 23.6086 8.93994 23.7047C8.98836 23.9537 9.0172 24.2303 9.05808 24.5056C9.09077 24.7243 9.22004 24.934 9.39861 25.0886C9.57827 25.2433 9.79255 25.3302 10.0132 25.3302C10.2338 25.3302 10.4481 25.2433 10.6277 25.0886C10.8063 24.934 10.9355 24.7243 10.9682 24.5056C11.0086 24.2285 11.0399 23.9534 11.0751 23.6505C11.0885 23.5307 11.1029 23.4071 11.1128 23.2595C11.1129 23.2576 11.113 23.2557 11.1132 23.2538C11.171 22.6371 11.501 22.064 11.5292 21.4311C11.5294 21.428 11.5295 21.425 11.5297 21.422C11.6307 19.4977 11.71 17.5308 11.8287 15.7175C11.8294 15.7085 11.8301 15.6995 11.8308 15.6907C11.8925 14.8445 11.9336 14.0031 11.9746 13.2017C11.9957 12.8021 12.0171 12.41 12.0486 12.0666C12.0641 11.8968 12.0833 11.7378 12.1029 11.6277C12.1105 11.5323 12.1811 11.4237 12.0519 11.692C12.0448 11.7047 12.037 11.7183 12.0284 11.7326C12.2428 11.3665 12.3509 11.1452 12.4103 11.0519C12.4354 11.0076 12.4414 11.0068 12.3784 11.0575C12.3193 11.1051 12.1601 11.2104 11.9495 11.2575C11.9042 11.268 11.8587 11.2757 11.8138 11.2806C11.8144 11.2805 11.815 11.2805 11.8157 11.2804C11.9966 11.2606 12.1662 11.2498 12.3191 11.2503Z" fill="#FF9371"/>
<path d="M12.0063 30.5265C12.0063 30.0999 11.8368 29.6908 11.5352 29.3892C11.2335 29.0875 10.8244 28.9181 10.3979 28.9181C9.9713 28.9181 9.56219 29.0875 9.26056 29.3892C8.95893 29.6908 8.78947 30.0999 8.78947 30.5265C8.78966 31.1833 8.77418 31.8437 8.75135 32.5139C8.7271 33.2236 8.69584 33.9406 8.66378 34.6598C8.66372 34.661 8.66367 34.6623 8.66361 34.6635C8.57254 37.0857 8.5079 39.4183 8.50294 41.7756C8.50294 41.7788 8.50294 41.7819 8.50293 41.7851C8.50306 43.9001 8.59909 45.9464 8.61506 47.9751C8.61511 47.98 8.61516 47.9848 8.61521 47.9896C8.62701 48.9139 8.77295 49.587 8.7765 50.3607C8.77657 50.3645 8.77663 50.3684 8.7767 50.3723C8.80389 52.1436 8.7979 53.9453 8.82519 55.765C8.82528 55.7704 8.82538 55.7759 8.82547 55.7813C8.86083 57.5807 8.98729 59.2919 9.0089 61.0163C9.009 61.0231 9.00911 61.0299 9.00921 61.0367C9.00052 61.9749 9.20322 63.144 9.27744 63.7833C9.27784 63.7876 9.27823 63.7919 9.27861 63.7962C9.43056 65.1867 9.48414 66.429 9.51852 67.7937C9.51869 67.8002 9.51886 67.8066 9.51903 67.8131C9.51292 68.6122 9.91235 69.5531 10.3396 70.0736C10.5104 70.2983 10.6653 70.4716 10.7588 70.5868L11.0109 70.8523C11.0112 70.8526 11.0116 70.8529 11.0119 70.8531C11.4402 71.185 12.0187 71.0853 12.4779 71.0196L12.5614 71.0483C12.5614 71.0483 12.5615 71.0483 12.5615 71.0483C12.844 71.0298 13.0913 70.8012 13.2162 70.6376C13.2547 70.5911 13.2917 70.5085 13.319 70.4345C13.3463 70.359 13.3616 70.2984 13.3616 70.2391C13.3616 70.1799 13.3463 70.1192 13.319 70.0437C13.2917 69.9698 13.2547 69.8871 13.2162 69.8407C13.0671 69.6792 13.0365 69.4404 13.0549 69.3429C13.0549 69.3429 13.0549 69.3428 13.0549 69.3428L13.1384 69.3716C12.9875 69.0597 12.9817 68.6398 12.8993 68.5552C12.8992 68.5551 12.8992 68.5551 12.8991 68.555L13.1512 68.8205C12.9901 68.5917 12.87 68.4359 12.7914 68.3126C12.6087 68.0157 12.6172 67.9622 12.6 67.7344C12.5999 67.7277 12.5997 67.7211 12.5995 67.7144C12.5675 66.3444 12.4758 64.8515 12.328 63.5244C12.3274 63.5173 12.3268 63.5104 12.3261 63.5034C12.1939 62.399 12.0784 61.8318 12.085 61.0072C12.085 61.0001 12.085 60.9931 12.0849 60.9861C12.0817 59.2131 12.0382 57.4309 12.0125 55.7336C12.0125 55.7284 12.0124 55.7232 12.0123 55.718C11.9925 53.9427 11.9978 52.1438 11.9755 50.3216C11.9754 50.3175 11.9754 50.3134 11.9753 50.3093C11.974 49.5053 11.9668 48.6128 11.9666 47.9605C11.9666 47.9556 11.9665 47.9506 11.9665 47.9456C11.9549 45.8561 11.8655 43.7893 11.8662 41.7862C11.8662 41.7831 11.8662 41.78 11.8662 41.7768C11.8705 39.4426 11.7917 37.0734 11.8772 34.8073C11.8773 34.806 11.8773 34.8048 11.8774 34.8035C11.9096 34.0801 11.9413 33.3556 11.9663 32.6231C11.9898 31.9323 12.0065 31.2313 12.0063 30.5265Z" fill="#FFD666"/>
<defs>
<linearGradient id="paint0_linear_1276_195" x1="31.2782" y1="26.5" x2="31.2782" y2="75.5" gradientUnits="userSpaceOnUse">
<stop offset="0.860577" stop-color="#E99C20"/>
<stop offset="1" stop-color="#F3A81A" stop-opacity="0"/>
</linearGradient>
</defs>
</svg>
