<svg xmlns="http://www.w3.org/2000/svg" viewBox="0 0 107.09 140.6"><defs><style>.cls-1{fill:#fff;}.cls-2{fill:#1a1919;}.cls-3{fill:none;stroke:#fff;stroke-linecap:round;stroke-linejoin:round;stroke-width:3px;}.cls-4{fill:#231f20;}</style></defs><g id="Background"><rect class="cls-1" x="0.08" width="107.03" height="140.65"/></g><g id="Layer_1" data-name="Layer 1"><rect class="cls-2" x="0.05" width="106.98" height="106.98"/><path class="cls-3" d="M77.83,67.34l-10.36-18,16.61-9.59,8.43,14.74a8.55,8.55,0,0,1,.69,2.15,8.39,8.39,0,0,1-1.38,6.59,6.39,6.39,0,0,1-.9,1.25.34.34,0,0,0-.07.11l-11.38,18A5.84,5.84,0,0,1,78.19,84a5.91,5.91,0,0,1-3.75,1.31l-9.58-.13-.13,7.43-9.4-16.35,9.45-17.5-.2,8.53Zm13-2.76c-.26.25-.54.51-.85.76a7.72,7.72,0,0,1-5.51,2l-6.66,0m-40.42-49a8.39,8.39,0,0,1,6.36-2.2l1.49.25,21.5.23,1.82.41a5.69,5.69,0,0,1,3,2.52l4.87,8.27,6.43-3.74L73.78,40.62l-19.89,1,7.43-4.23L54.61,26,44.49,44.18,34.39,35l-4.07-4.85,5.61-10.1A10.31,10.31,0,0,1,37.41,18.37ZM29.8,66.68l6.62-11.43,7.3,4.43L33.26,42.77H14.38l6.4,3.82-4.89,8.25a5.67,5.67,0,0,0-.74,3.87,5.8,5.8,0,0,0,.51,1.77l10.09,19a9.56,9.56,0,0,1-.3-1.2,7.83,7.83,0,0,1,1-5.76l3.38-5.82H50.53l0,19.19H34.47a8.1,8.1,0,0,1-3.13-.54,8.3,8.3,0,0,1-5-4.46,7.38,7.38,0,0,1-.62-1.41m19.51-63,1.23.21A7.89,7.89,0,0,1,51,20.32L54.61,26"/><polygon class="cls-1" points="97.39 102.04 3.29 10.09 3.29 3.27 10.11 3.27 104.3 95.22 104.2 102.04 97.39 102.04"/><path class="cls-2" d="M104.09,3V137.6H3V3H104.09m3-3H0V140.6H107.09V0Z"/></g><g id="Text_Est" data-name="Text Est"><path class="cls-4" d="M38.81,117.84h1.51a1.63,1.63,0,0,0,.26,1,.84.84,0,0,0,.71.32.8.8,0,0,0,.68-.29,1.49,1.49,0,0,0,.22-.91,1.32,1.32,0,0,0-.24-.83,2.15,2.15,0,0,0-.81-.56l-.62-.28a2.89,2.89,0,0,1-1.25-1,2.67,2.67,0,0,1-.38-1.53,2.51,2.51,0,0,1,.65-1.81,2.37,2.37,0,0,1,1.78-.67A2.19,2.19,0,0,1,43,112a3,3,0,0,1,.64,1.93H42.2A1.81,1.81,0,0,0,42,113a.76.76,0,0,0-.67-.31c-.58,0-.87.35-.87,1a1.23,1.23,0,0,0,.21.75,1.84,1.84,0,0,0,.72.5l.59.26a3.18,3.18,0,0,1,1.36,1,2.92,2.92,0,0,1,.42,1.66,2.7,2.7,0,0,1-.65,1.93,2.44,2.44,0,0,1-1.85.67,2.29,2.29,0,0,1-1.8-.69A2.86,2.86,0,0,1,38.81,117.84Z"/><path class="cls-4" d="M46.88,115.12H49v1.43H46.88V119H49.3v1.43h-4v-9h4v1.44H46.88Z"/><path class="cls-4" d="M50.77,117.93v-4a2.5,2.5,0,0,1,.71-1.93,2.69,2.69,0,0,1,1.89-.66,2.55,2.55,0,0,1,1.81.64,2.46,2.46,0,0,1,.68,1.88v.27H54.27v-.27A1.15,1.15,0,0,0,54,113a.92.92,0,0,0-.68-.28.84.84,0,0,0-.74.35,2,2,0,0,0-.22,1.06v3.6c0,.87.32,1.31,1,1.31a.81.81,0,0,0,.7-.32,1.51,1.51,0,0,0,.24-.92v-.94h-1v-1.27h2.54v2.32a2.47,2.47,0,0,1-.72,1.91,2.65,2.65,0,0,1-1.86.66,2.3,2.3,0,0,1-2.51-2.57Z"/><path class="cls-4" d="M59.11,118.66l-.36,1.74H57.09l2.3-9H61l2.29,9H61.57l-.36-1.74Zm1.06-5.07-.76,3.64h1.51Z"/><path class="cls-4" d="M68,115.19v1.43H64.46v-1.43Z"/><path class="cls-4" d="M20,130.93v-4a2.5,2.5,0,0,1,.71-1.93,2.69,2.69,0,0,1,1.89-.66,2.49,2.49,0,0,1,1.81.66,2.53,2.53,0,0,1,.69,1.93v4a2.44,2.44,0,0,1-.73,1.91,2.65,2.65,0,0,1-1.86.66,2.54,2.54,0,0,1-1.83-.65A2.57,2.57,0,0,1,20,130.93Zm3.5-.18v-3.6a1.9,1.9,0,0,0-.24-1.05.77.77,0,0,0-.7-.36.81.81,0,0,0-.73.35,1.92,1.92,0,0,0-.23,1.06v3.6c0,.87.32,1.31,1,1.31a.83.83,0,0,0,.7-.34A1.7,1.7,0,0,0,23.53,130.75Z"/><path class="cls-4" d="M28.41,124.43V132h2.41v1.43h-4v-9Z"/><path class="cls-4" d="M38.57,133.4H37v-5.25l-1.15,3.51H35l-1.13-3.47v5.21h-1.6v-9h1.6l1.56,4.73L37,124.43h1.6Z"/><path class="cls-4" d="M41.9,128.12H44v1.43H41.9V132h2.41v1.43h-4v-9h4v1.44H41.9Z"/><path class="cls-4" d="M45.72,132c.55,0,.83-.29.83-.87v-6.66h1.6v6.84c0,1.42-.78,2.13-2.33,2.13h-.31V132Z"/><path class="cls-4" d="M51.24,131.66l-.36,1.74H49.22l2.3-9h1.56l2.28,9H53.7l-.36-1.74Zm.64-9.53v1.48H50.67v-1.48Zm.42,4.46-.76,3.64h1.51Zm1.61-4.46v1.48H52.7v-1.48Z"/><path class="cls-4" d="M58.2,131.66l-.37,1.74H56.17l2.3-9H60l2.29,9H60.65l-.36-1.74Zm.63-9.53v1.48h-1.2v-1.48Zm.42,4.46-.75,3.64H60Zm1.61-4.46v1.48H59.65v-1.48Z"/><path class="cls-4" d="M65.69,125.87v7.53H64.1v-7.53H62.54v-1.44h4.69v1.44Z"/><path class="cls-4" d="M74.81,133.4h-1.6v-5.25l-1.14,3.51h-.86l-1.13-3.47v5.21h-1.6v-9h1.6l1.56,4.73,1.57-4.73h1.6Z"/><path class="cls-4" d="M78.14,128.12h2.08v1.43H78.14V132h2.42v1.43h-4v-9h4v1.44H78.14Z"/><path class="cls-4" d="M84.56,124.43a2.32,2.32,0,0,1,2.5,2.57v3.82a2.46,2.46,0,0,1-.72,1.92,2.61,2.61,0,0,1-1.86.66h-2.4v-9Zm.66,7.19a1.73,1.73,0,0,0,.24-1v-3.36a1.9,1.9,0,0,0-.24-1,.77.77,0,0,0-.7-.36h-.86V132h.86A.8.8,0,0,0,85.22,131.62Z"/></g></svg>